#!OML:ASF C:\Vicon Data\Big\jianyuan-12\jianyuan\Session 1\Capture.male.ASF
:FULLY-SPECIFIED
:DEGREES
112
root -9.790615 16.754300 -15.406135 5.723066 -20.671292 4.898341
lowerback -9.313053 0.496890 -2.498447 
upperback 2.641646 1.063125 -1.065966 
thorax 8.007594 0.426905 0.450698 
lowerneck -1.300304 -8.222526 -5.381709 
upperneck 5.757961 -11.318866 8.787115 
head 3.031799 -5.521074 3.458305 
rclavicle 0.000000 0.000000 
rhumerus -29.093099 -23.880006 -83.142496 
rradius 39.229817 
rwrist 31.408481 
rhand -22.771253 -4.343602 
rfingers 0.000000 
rthumb 3.664023 -34.291819 
lclavicle 0.000000 0.000000 
lhumerus -53.283396 43.452358 56.767752 
lradius 25.165926 
lwrist -62.526961 
lhand -8.100409 2.213542 
lfingers 0.000000 
lthumb 17.812227 31.417786 
rfemur 12.325178 2.853258 23.189498 
rtibia 2.016329 
rfoot -19.611925 -1.725259 
rtoes -16.116228 
lfemur -34.553336 -6.041359 -19.845123 
ltibia 17.634897 
lfoot -14.755699 4.474652 
ltoes -20.438847 
113
root -9.817717 16.742304 -15.305158 5.778440 -20.770042 4.780095
lowerback -9.383172 0.538582 -2.434957 
upperback 2.616183 1.112230 -1.061927 
thorax 8.020473 0.453723 0.427892 
lowerneck -1.263339 -8.223555 -5.394854 
upperneck 5.733552 -11.323673 8.852150 
head 3.023184 -5.523371 3.484828 
rclavicle 0.000000 0.000000 
rhumerus -29.269073 -24.166148 -82.992693 
rradius 39.078418 
rwrist 31.407310 
rhand -22.739131 -3.928844 
rfingers 0.000000 
rthumb 3.695055 -33.876592 
lclavicle 0.000000 0.000000 
lhumerus -53.438262 43.701101 56.345587 
lradius 25.059554 
lwrist -62.951086 
lhand -8.206721 2.141182 
lfingers 0.000000 
lthumb 17.709959 31.354693 
rfemur 11.814650 2.804450 23.304005 
rtibia 3.742194 
rfoot -20.271623 -1.602800 
rtoes -16.920193 
lfemur -34.524682 -5.663403 -20.076868 
ltibia 18.058731 
lfoot -14.494199 4.492716 
ltoes -20.224356 
114
root -9.840741 16.733077 -15.202148 5.737638 -20.963808 4.856348
lowerback -9.489682 0.605848 -2.618882 
upperback 2.645572 1.225572 -1.008074 
thorax 8.106620 0.496922 0.608014 
lowerneck -1.348245 -8.270690 -5.444882 
upperneck 5.786971 -11.378088 8.715847 
head 3.054481 -5.552298 3.439473 
rclavicle 0.000000 0.000000 
rhumerus -29.396190 -24.290807 -82.713999 
rradius 38.973161 
rwrist 31.304660 
rhand -22.743340 -3.956993 
rfingers 0.000000 
rthumb 3.690950 -33.904740 
lclavicle 0.000000 0.000000 
lhumerus -53.470328 43.970180 56.282328 
lradius 24.941000 
lwrist -63.463128 
lhand -8.523567 2.235775 
lfingers 0.000000 
lthumb 17.405031 31.476508 
rfemur 11.529652 2.838953 23.169868 
rtibia 5.060117 
rfoot -20.666716 -1.492899 
rtoes -17.174633 
lfemur -34.412186 -5.496272 -20.396680 
ltibia 18.498990 
lfoot -14.513418 4.737923 
ltoes -19.008475 
115
root -9.867535 16.726681 -15.098461 5.745769 -21.218764 4.859991
lowerback -9.537483 0.665850 -2.562007 
upperback 2.585478 1.306712 -1.105832 
thorax 8.070794 0.542961 0.486265 
lowerneck -1.289197 -8.270569 -5.389463 
upperneck 5.841400 -11.386357 8.742721 
head 3.060923 -5.554643 3.440256 
rclavicle 0.000000 0.000000 
rhumerus -29.679269 -24.358453 -82.706966 
rradius 38.882023 
rwrist 31.634625 
rhand -22.639688 -4.133610 
rfingers 0.000000 
rthumb 3.791016 -34.079633 
lclavicle 0.000000 0.000000 
lhumerus -53.415089 43.852685 56.175714 
lradius 24.931735 
lwrist -63.376029 
lhand -8.659053 2.454200 
lfingers 0.000000 
lthumb 17.274581 31.706402 
rfemur 11.326237 2.940830 23.108576 
rtibia 6.156764 
rfoot -20.903061 -1.420672 
rtoes -17.447296 
lfemur -34.341339 -5.205149 -20.658426 
ltibia 19.044472 
lfoot -14.551829 4.769460 
ltoes -18.774416 
116
root -9.894910 16.717020 -14.994827 5.818070 -21.422888 4.768942
lowerback -9.589190 0.686465 -2.420386 
upperback 2.505411 1.321172 -1.171406 
thorax 8.018506 0.559899 0.340095 
lowerneck -1.278569 -8.232338 -5.380591 
upperneck 5.934591 -11.343982 8.781274 
head 3.090002 -5.530890 3.453942 
rclavicle 0.000000 0.000000 
rhumerus -29.983644 -24.438645 -82.662278 
rradius 38.712677 
rwrist 31.844711 
rhand -22.734026 -3.952054 
rfingers 0.000000 
rthumb 3.699955 -33.899672 
lclavicle 0.000000 0.000000 
lhumerus -53.618038 44.052980 55.673318 
lradius 24.875396 
lwrist -63.391932 
lhand -8.800155 2.342047 
lfingers 0.000000 
lthumb 17.138786 31.606108 
rfemur 11.124945 2.998399 23.170205 
rtibia 7.209056 
rfoot -21.064467 -1.470185 
rtoes -18.246963 
lfemur -34.351342 -5.008663 -20.760000 
ltibia 19.700881 
lfoot -14.645242 4.741833 
ltoes -18.529622 
117
root -9.915529 16.701708 -14.887907 5.740195 -21.756349 4.810441
lowerback -9.614226 0.802456 -2.490504 
upperback 2.501085 1.485065 -1.161314 
thorax 8.022805 0.635943 0.417168 
lowerneck -1.219028 -8.253000 -5.489368 
upperneck 5.901377 -11.371708 8.832578 
head 3.082095 -5.548027 3.492868 
rclavicle 0.000000 0.000000 
rhumerus -30.271905 -24.716751 -82.318607 
rradius 38.641240 
rwrist 32.102896 
rhand -22.506771 -3.649508 
rfingers 0.000000 
rthumb 3.919420 -33.593250 
lclavicle 0.000000 0.000000 
lhumerus -53.754551 44.468600 55.297963 
lradius 24.645625 
lwrist -63.899005 
lhand -8.997504 2.306237 
lfingers 0.000000 
lthumb 16.948850 31.586693 
rfemur 11.136045 3.174555 23.033318 
rtibia 8.022295 
rfoot -21.045765 -1.454975 
rtoes -18.565562 
lfemur -34.272877 -4.843138 -21.011592 
ltibia 20.427368 
lfoot -14.738008 4.989126 
ltoes -19.462331 
118
root -9.944626 16.695237 -14.778939 5.817059 -22.058133 4.781541
lowerback -9.815242 0.892553 -2.584535 
upperback 2.454589 1.621175 -1.133150 
thorax 8.082599 0.696046 0.525445 
lowerneck -1.221002 -8.275604 -5.528266 
upperneck 5.979488 -11.404550 8.811160 
head 3.113300 -5.564297 3.489858 
rclavicle 0.000000 0.000000 
rhumerus -30.596725 -24.764287 -82.146103 
rradius 38.568692 
rwrist 32.224269 
rhand -22.485436 -3.912377 
rfingers 0.000000 
rthumb 3.940010 -33.855730 
lclavicle 0.000000 0.000000 
lhumerus -53.781089 44.569035 55.208110 
lradius 24.653117 
lwrist -63.828798 
lhand -9.067637 2.257800 
lfingers 0.000000 
lthumb 16.881342 31.544082 
rfemur 11.035450 3.329262 22.987099 
rtibia 8.860207 
rfoot -21.096921 -1.356331 
rtoes -18.423072 
lfemur -34.220181 -4.581489 -21.186575 
ltibia 21.007692 
lfoot -14.641535 4.945545 
ltoes -20.744262 
119
root -9.970073 16.696245 -14.663430 5.751557 -22.411800 4.866341
lowerback -9.929461 0.988882 -2.603518 
upperback 2.427803 1.763387 -1.222626 
thorax 8.118700 0.766602 0.467048 
lowerneck -1.213760 -8.288568 -5.452346 
upperneck 6.061197 -11.426059 8.760198 
head 3.132009 -5.573057 3.456650 
rclavicle 0.000000 0.000000 
rhumerus -30.974153 -24.692484 -82.097788 
rradius 38.681398 
rwrist 31.821883 
rhand -22.365874 -4.147170 
rfingers 0.000000 
rthumb 4.055493 -34.088276 
lclavicle 0.000000 0.000000 
lhumerus -53.800437 44.624212 55.020446 
lradius 24.664230 
lwrist -63.657385 
lhand -9.182616 2.122255 
lfingers 0.000000 
lthumb 16.770666 31.417965 
rfemur 11.086286 3.529924 22.755624 
rtibia 9.602112 
rfoot -21.016765 -1.307024 
rtoes -18.971220 
lfemur -33.894793 -4.624539 -21.322789 
ltibia 21.385107 
lfoot -14.550646 4.854942 
ltoes -20.214720 
120
root -9.998865 16.706369 -14.549028 5.785264 -22.874600 4.921256
lowerback -10.133555 1.073465 -2.685222 
upperback 2.384944 1.894999 -1.237639 
thorax 8.185421 0.826179 0.523177 
lowerneck -1.336907 -8.284434 -5.511115 
upperneck 6.268850 -11.422463 8.670063 
head 3.223505 -5.568538 3.429059 
rclavicle 0.000000 0.000000 
rhumerus -31.166837 -24.685415 -81.960474 
rradius 38.503462 
rwrist 31.634646 
rhand -22.252635 -4.169183 
rfingers 0.000000 
rthumb 4.164819 -34.108222 
lclavicle 0.000000 0.000000 
lhumerus -53.776113 44.697674 55.038217 
lradius 24.674987 
lwrist -63.556696 
lhand -9.331024 2.314851 
lfingers 0.000000 
lthumb 16.627758 31.622584 
rfemur 11.037815 3.795749 22.541297 
rtibia 10.266034 
rfoot -20.776439 -1.246397 
rtoes -19.095010 
lfemur -33.633943 -4.605594 -21.382827 
ltibia 21.707022 
lfoot -14.399690 4.735056 
ltoes -19.656520 
121
root -10.026582 16.706840 -14.432365 5.724485 -23.333448 5.114818
lowerback -10.295210 1.167260 -2.809065 
upperback 2.314338 2.052211 -1.366687 
thorax 8.199822 0.900581 0.485841 
lowerneck -1.314481 -8.273453 -5.411889 
upperneck 6.415313 -11.414355 8.583424 
head 3.254676 -5.562058 3.380998 
rclavicle 0.000000 0.000000 
rhumerus -31.530771 -25.039570 -81.738323 
rradius 38.102052 
rwrist 32.655051 
rhand -22.430625 -4.077082 
rfingers 0.000000 
rthumb 3.992899 -34.019418 
lclavicle 0.000000 0.000000 
lhumerus -53.776320 44.733244 54.874466 
lradius 24.664085 
lwrist -63.168192 
lhand -9.326639 2.363091 
lfingers 0.000000 
lthumb 16.632025 31.670468 
rfemur 11.077933 3.931142 22.182375 
rtibia 10.893632 
rfoot -20.465753 -1.047205 
rtoes -18.427230 
lfemur -33.333242 -4.420783 -21.679495 
ltibia 21.988569 
lfoot -13.906961 4.548040 
ltoes -19.591541 
122
root -10.057891 16.704500 -14.319533 5.655004 -23.618916 5.178406
lowerback -10.328393 1.224135 -2.893591 
upperback 2.245433 2.144432 -1.432687 
thorax 8.142034 0.944638 0.479197 
lowerneck -1.313046 -8.248754 -5.333249 
upperneck 6.594651 -11.394791 8.586076 
head 3.245302 -5.543315 3.303765 
rclavicle 0.000000 0.000000 
rhumerus -31.900520 -25.100143 -81.605159 
rradius 38.054084 
rwrist 32.453353 
rhand -22.241006 -4.033332 
rfingers 0.000000 
rthumb 4.176047 -33.972114 
lclavicle 0.000000 0.000000 
lhumerus -53.410098 44.147256 55.478646 
lradius 24.928824 
lwrist -62.672969 
lhand -9.312091 2.661598 
lfingers 0.000000 
lthumb 16.646010 31.967781 
rfemur 11.164018 3.959185 22.005770 
rtibia 11.610679 
rfoot -20.229946 -0.907693 
rtoes -18.200491 
lfemur -33.101364 -4.405906 -21.788914 
ltibia 22.322389 
lfoot -13.135563 4.418047 
ltoes -18.576517 
